<svg width="391" height="386" viewBox="0 0 391 386" fill="none" xmlns="http://www.w3.org/2000/svg">
<path d="M130.355 348.373L126.387 347.357L127.556 342.075C128.832 342.481 130.072 342.847 131.347 343.172L130.355 348.373Z" fill="#68E1FD"/>
<path d="M190.626 375.23C191.922 376.527 193.034 378.049 193.921 379.74C194.095 380.054 194.17 380.427 194.133 380.797C194.133 381.365 193.46 381.69 192.929 381.853C190.732 382.503 188.409 382.293 186.329 381.255C184.248 380.216 182.531 378.41 181.449 376.124C179.808 373.429 178.919 370.228 178.897 366.941L179.5 361.659C179.573 360.839 179.739 360.033 179.996 359.262C180.338 358.51 180.78 357.825 181.307 357.23C182.182 356.099 183.241 355.174 184.425 354.508C184.562 354.452 184.713 354.452 184.85 354.508C185.134 354.508 185.275 354.914 185.346 355.199C185.544 356.554 185.471 357.943 185.134 359.262C184.721 363.132 185.511 367.045 187.366 370.314C188.262 372.108 189.358 373.76 190.626 375.23Z" fill="#F89659"/>
<path d="M216.81 343.538C216.275 343.193 215.681 342.986 215.069 342.93C214.458 342.874 213.843 342.97 213.267 343.213C212.735 343.624 212.227 344.071 211.743 344.553C210.218 345.246 208.52 345.246 206.995 344.553C205.32 343.954 203.6 343.532 201.857 343.294C201.857 343.294 201.857 347.357 202.495 347.723C203.329 348.056 204.2 348.248 205.082 348.291C208.61 348.813 212.183 348.813 215.711 348.291C216.704 348.048 220.034 347.438 220.495 346.179C220.955 344.919 217.731 343.903 216.81 343.538Z" fill="#68E1FD"/>
<path d="M196.295 380.512C196.934 381.328 197.342 382.349 197.464 383.438C197.48 383.817 197.38 384.191 197.18 384.494C196.943 384.699 196.661 384.825 196.365 384.86C194.037 385.447 191.634 385.53 189.279 385.103C186.957 384.687 184.83 383.367 183.256 381.365C182.228 379.943 181.555 378.237 180.598 376.774C179.641 375.311 178.756 374.377 178.012 373.036C177.267 371.695 178.012 369.298 178.578 367.835C179.216 367.835 179.004 369.257 179.287 369.907C180.252 372.296 181.625 374.438 183.326 376.205C184.054 377.162 184.945 377.937 185.945 378.482C186.944 379.027 188.031 379.331 189.137 379.374C189.54 379.375 189.937 379.264 190.294 379.052C190.652 378.84 190.96 378.532 191.192 378.155C191.547 377.505 191.192 376.002 191.795 375.758C192.397 375.514 195.728 379.862 196.295 380.512Z" fill="#68E1FD"/>
<path d="M147.575 350.12L125.359 357.271L133.048 374.295L148.815 369.217L147.575 350.12Z" fill="#68E1FD"/>
<path d="M147.575 350.12L125.359 357.271L133.048 374.295L148.815 369.217L147.575 350.12Z" fill="url(#paint0_linear)"/>
<path d="M146.892 343.617L123.052 351.317C121.056 351.962 119.891 354.332 120.451 356.611C121.01 358.889 123.083 360.214 125.079 359.569L148.919 351.869C150.915 351.224 152.08 348.854 151.521 346.576C150.961 344.297 148.889 342.972 146.892 343.617Z" fill="#68E1FD"/>
<path d="M234.774 24.0537L345.854 40.997L267.797 50.5047L234.774 24.0537Z" fill="#68E1FD"/>
<path d="M267.797 50.5047L273.714 90.4859L283.174 57.2901L345.854 40.997L267.797 50.5047Z" fill="#68E1FD"/>
<path d="M267.797 50.5047L273.714 90.4859L283.174 57.2901L345.854 40.997L267.797 50.5047Z" fill="url(#paint1_linear)"/>
<path d="M306.808 93.8989L283.175 57.2901L345.854 40.997L306.808 93.8989Z" fill="#68E1FD"/>
<path d="M273.714 90.4859L296.426 77.7683L283.175 57.2901L273.714 90.4859Z" fill="white"/>
<path opacity="0.59" d="M273.714 90.4859L296.426 77.7683L283.175 57.2901L273.714 90.4859Z" fill="#68E1FD"/>
<path d="M254.97 94.3459L253.943 89.0232C255.141 88.7524 256.324 88.3997 257.486 87.9668L259.116 93.0457C257.76 93.5819 256.375 94.0162 254.97 94.3459Z" fill="#68E1FD"/>
<path d="M111.045 342.075C108.458 341.1 105.943 340.125 103.498 339.068L105.128 333.989C107.502 335.005 109.982 335.98 112.497 336.915L111.045 342.075ZM88.7224 331.958C86.2422 330.576 83.8328 329.154 81.636 327.895L83.8682 322.978C86.0296 324.36 88.3327 325.741 90.7421 327.041L88.7224 331.958ZM280.057 328.626H272.084V323.181L279.915 323.425L280.057 328.626ZM296.001 328.301L295.753 322.897C298.411 322.897 301.033 322.531 303.548 322.247L303.938 327.651C301.458 327.935 298.8 328.138 296.072 328.301H296.001ZM256.246 327.041L248.345 326.107L248.876 320.703C251.498 321.069 254.085 321.353 256.671 321.637L256.246 327.041ZM320.024 325.091L319.209 319.768C321.796 319.24 324.382 318.631 326.827 317.981L327.89 323.263C325.233 324.116 322.575 324.725 319.882 325.254L320.024 325.091ZM343.303 317.94L341.638 312.902C344.118 311.805 346.492 310.667 348.724 309.448L350.779 314.324C348.264 315.786 345.748 317.005 343.161 318.102L343.303 317.94ZM68.3135 317.209C66.192 315.242 64.1802 313.125 62.29 310.87L65.8332 307.132C67.5907 309.227 69.4604 311.195 71.4315 313.024L68.3135 317.209ZM364.669 304.613L361.763 300.306C363.003 299.209 364.208 298.031 365.307 296.812L367.326 294.536L370.621 298.396L368.425 300.794C367.326 302.256 365.874 303.556 364.527 304.775L364.669 304.613ZM52.865 295.349C51.659 292.487 50.7093 289.492 50.0304 286.41L54.6366 285.232C55.1636 288.033 55.9598 290.758 57.0106 293.358L52.865 295.349ZM141.091 294.049L133.473 290.473L135.387 285.516C137.761 286.694 140.17 287.873 142.473 289.01L141.091 294.049ZM381.393 284.338L377.531 281.209C378.982 278.846 380.296 276.376 381.464 273.814L385.645 276.293C384.333 279.141 382.853 281.883 381.216 284.5L381.393 284.338ZM119.194 282.794C116.785 281.453 114.411 280.072 112.108 278.731L114.234 274.221C116.537 275.602 118.875 276.984 121.32 278.284L119.194 282.794ZM98.0411 270.158C95.738 268.614 93.4349 267.029 91.2381 265.404L93.7538 260.812C95.9152 262.397 98.1829 263.982 100.451 265.526L98.0411 270.158ZM54.4595 268.573L49.8178 267.557C50.3643 264.46 51.1225 261.417 52.0855 258.456L56.5145 260.325C55.6761 262.945 55.0128 265.634 54.5303 268.37L54.4595 268.573ZM390.357 258.496L385.645 257.927C385.78 256.579 385.851 255.222 385.857 253.864C385.853 252.506 385.782 251.15 385.645 249.801L390.357 249.232C390.499 250.812 390.57 252.398 390.57 253.986C390.579 255.424 390.532 256.861 390.428 258.293L390.357 258.496ZM78.0219 255.165C75.8605 253.336 73.6992 251.508 71.6441 249.639L74.5495 245.372C76.5692 247.201 78.6597 248.989 80.7856 250.776L78.0219 255.165ZM63.6718 244.722L59.7389 241.716C61.227 239.237 62.8569 236.759 64.5931 234.28L68.1363 237.693C66.6127 240.009 65.0537 242.406 63.6718 244.722ZM59.5617 237.652C57.5775 235.54 55.6642 233.346 53.8571 231.192L57.4003 227.413C59.1719 229.526 60.9436 231.477 62.9278 233.711L59.5617 237.652ZM381.251 233.305C380.066 230.764 378.728 228.32 377.247 225.991L381.074 222.781C382.683 225.376 384.139 228.09 385.432 230.908L381.251 233.305ZM78.8723 224.772L75.6479 220.709C77.5613 218.678 79.5809 216.646 81.6714 214.615L84.6832 218.678C82.6635 220.79 80.7148 222.781 78.8723 224.772ZM43.44 216.971C41.8101 214.452 40.2511 211.892 38.8693 209.332L42.8731 206.448C44.1841 208.886 45.6723 211.323 47.2313 213.721L43.44 216.971ZM366.936 212.908C365.129 210.998 363.145 209.089 361.055 207.22L363.96 203.157C366.157 205.107 368.212 207.22 370.125 209.129L366.936 212.908ZM97.0845 208.032L94.4979 203.563C96.6593 201.856 98.9269 200.15 101.159 198.484L103.71 203.075C101.584 204.66 99.2104 206.326 97.0845 208.032ZM348.264 197.021C346.102 195.477 343.835 193.974 341.532 192.511L343.835 187.757C346.209 189.261 348.547 190.845 350.744 192.389L348.264 197.021ZM117.068 194.014L114.836 189.261C117.139 187.798 119.548 186.376 121.922 185.197L124.048 190.073C121.71 191.13 119.3 192.552 117.068 193.974V194.014ZM31.4639 192.958C30.4718 190.033 29.586 187.026 28.8774 184.1L33.4481 182.678C34.1213 185.401 34.9363 188.204 35.8575 190.805L31.4639 192.958ZM327.607 184.466L320.52 180.85L322.363 175.852C324.808 177.071 327.288 178.29 329.662 179.55L327.607 184.466ZM138.221 182.394L136.379 177.396C138.788 176.218 141.304 175.04 143.749 173.943L145.485 178.981C143.076 179.915 140.56 181.094 138.221 182.272V182.394ZM305.851 174.268C303.406 173.293 300.926 172.317 298.411 171.383L299.863 166.223C302.414 167.157 304.965 168.173 307.41 169.148L305.851 174.268ZM160.225 172.642L158.737 167.482C161.288 166.548 163.839 165.613 166.39 164.76L167.736 169.961C165.362 170.936 162.705 171.83 160.225 172.642ZM283.352 166.182C280.836 165.451 278.25 164.719 275.734 164.069L276.797 158.787C279.348 159.437 281.97 160.169 284.557 160.941L283.352 166.182ZM26.5034 165.41C26.5034 163.947 26.5034 162.525 26.5034 161.103C26.5034 159.681 26.5034 157.771 26.5034 156.146L31.2159 156.39C31.2159 157.934 31.2159 159.478 31.2159 161.103C31.2159 162.728 31.2159 163.825 31.2159 165.166L26.5034 165.41ZM182.866 165.41L181.803 160.453C184.39 159.762 187.011 159.112 189.598 158.503L190.519 163.825C187.968 164.191 185.382 164.841 182.866 165.491V165.41ZM260.392 160.697L257.486 160.453L252.738 159.803L253.234 154.399L258.159 155.09L261.171 155.618L260.392 160.697ZM205.968 160.697L205.33 155.333C207.987 154.927 210.645 154.602 213.267 154.318L213.727 159.681C211.141 159.925 208.554 160.453 205.968 160.656V160.697ZM229.318 158.584V153.18C231.975 153.18 234.632 153.18 237.29 153.18V158.625C234.526 158.462 231.904 158.503 229.318 158.543V158.584ZM33.2001 139.04L28.5939 137.862C29.1608 134.815 29.9049 131.808 30.7199 128.882L35.2197 130.589C34.4136 133.362 33.7394 136.183 33.2001 139.04ZM41.4204 114.662L37.3457 111.939C38.7179 109.254 40.208 106.65 41.8101 104.138L45.6368 107.348C44.0905 109.679 42.6591 112.107 41.3495 114.621L41.4204 114.662ZM238.636 95.8492C235.917 95.6916 233.207 95.3524 230.522 94.8335L231.302 89.4701C233.812 89.9554 236.343 90.281 238.884 90.4453L238.636 95.8492ZM55.8767 94.3053L52.6878 90.2421C54.6721 88.2106 56.7626 86.179 58.9594 84.31L61.7939 88.6575C59.7389 90.4859 57.7192 92.355 55.8767 94.3053ZM214.968 89.5514C212.459 88.3543 210.01 86.9978 207.633 85.4883L209.901 80.7344C212.136 82.1247 214.43 83.3858 216.775 84.5131L214.968 89.5514ZM74.833 79.1904L72.6008 74.3959C74.9393 73.0145 77.3841 71.633 79.6872 70.3328L81.6006 75.2898C79.4038 76.59 77.0298 77.8902 74.833 79.1904ZM194.169 75.1273C192.148 73.5433 190.001 72.1829 187.756 71.0642L189.74 66.1478C192.224 67.479 194.597 69.0704 196.826 70.9016L194.169 75.1273ZM96.3404 69.1951L94.9585 63.9943C97.4742 63.1411 100.096 62.3284 102.718 61.5564L103.817 66.8385C101.301 67.5292 98.7852 68.3419 96.3404 69.1951ZM173.228 65.4164C170.819 64.7663 168.268 64.1975 165.646 63.7099L166.39 58.3872C169.118 58.8748 171.776 59.4842 174.327 60.175L173.228 65.4164ZM119.3 63.4661L118.627 58.1028C121.249 57.6965 123.942 57.3308 126.6 57.0464L127.025 62.4503C124.261 62.9379 121.674 62.9379 119.3 63.4661ZM150.375 61.8815C147.823 61.8815 145.201 61.6377 142.579 61.6377V56.2337C145.272 56.2337 147.965 56.2337 150.587 56.4775L150.375 61.8815Z" fill="#68E1FD"/>
<path d="M179.96 131.036C179.851 132.867 179.48 134.665 178.862 136.359C178.323 137.3 177.608 138.091 176.768 138.675C175.928 139.258 174.985 139.619 174.008 139.731C172.059 140.097 170.075 139.934 168.126 140.137C166.177 140.341 164.051 141.641 164.264 143.713C164.364 144.348 164.595 144.947 164.937 145.46L167.311 150.051C167.618 150.501 167.77 151.066 167.736 151.636C167.736 152.408 166.85 152.814 166.213 153.139C164.606 154.079 163.187 155.391 162.047 156.993C160.906 158.595 160.068 160.451 159.587 162.444C158.62 166.431 158.62 170.646 159.587 174.633C159.617 174.913 159.694 175.182 159.816 175.426C159.938 175.67 160.101 175.884 160.296 176.055C160.621 176.258 160.988 176.357 161.358 176.34C162.471 176.557 163.533 177.028 164.483 177.726C165.433 178.424 166.25 179.335 166.886 180.403C168.116 182.62 169.217 184.927 170.181 187.31C172.836 193.02 176.713 197.862 181.449 201.38C186.184 204.898 191.622 206.978 197.251 207.423C198.173 207.527 199.104 207.402 199.98 207.057C201.028 206.449 201.874 205.464 202.389 204.254C204.834 199.134 204.125 192.999 204.302 187.392C204.292 184.609 204.749 181.85 205.649 179.265C206.216 177.803 206.747 177.721 207.562 176.868C207.95 176.575 208.269 176.177 208.492 175.71C208.714 175.242 208.833 174.719 208.838 174.186C208.649 172.804 208.353 171.444 207.952 170.123C207.658 167.57 208.16 164.98 209.369 162.81C210.57 160.685 211.67 158.488 212.664 156.227C213.356 154.126 213.785 151.924 213.94 149.686C214.952 143.974 214.107 138.034 211.566 132.986C210.572 131.373 209.29 130.021 207.806 129.02C206.321 128.018 204.668 127.39 202.956 127.176C201.55 127.129 200.151 126.939 198.775 126.607C196.684 125.835 195.976 123.357 193.779 122.544C191.877 121.783 189.829 121.642 187.862 122.138C185.945 122.61 184.184 123.697 182.785 125.272C181.387 126.848 180.407 128.847 179.96 131.036Z" fill="#473F47"/>
<path d="M202.495 345.325C202.563 345.736 202.708 346.124 202.921 346.463C203.107 346.743 203.35 346.966 203.629 347.113C204.838 347.689 206.159 347.886 207.456 347.682C209.05 347.682 210.609 347.316 212.168 347.032C212.612 347.037 213.05 346.913 213.44 346.671C213.83 346.43 214.161 346.078 214.401 345.65C214.515 345.168 214.483 344.656 214.309 344.198C214.135 343.74 213.83 343.364 213.444 343.131C212.671 342.678 211.829 342.402 210.964 342.319C210.092 342.19 209.282 341.733 208.661 341.018C207.775 339.759 208.165 337.768 207.243 336.549C206.678 336.064 206.02 335.74 205.323 335.606C204.627 335.472 203.912 335.53 203.24 335.777C200.37 336.793 201.893 343.009 202.495 345.325Z" fill="#F89659"/>
<path d="M214.967 296.934C214.79 297.787 214.649 298.64 214.507 299.493C212.912 310.057 210.964 320.581 209.157 331.104C208.931 333.421 208.118 335.611 206.818 337.402C206.463 337.907 206.007 338.307 205.489 338.569C204.971 338.83 204.406 338.946 203.842 338.906H203.523C202.035 338.337 201.184 335.94 201.184 333.542L201.964 290.473C202.086 289.968 202.086 289.434 201.964 288.929C201.67 288.472 201.28 288.108 200.83 287.873C199.767 287.223 198.739 286.532 197.712 285.841C194.558 283.769 191.476 281.534 188.464 279.218C184.425 276.09 180.492 272.799 176.701 269.264C173.945 267.339 171.76 264.507 170.429 261.137C169.168 256.993 167.725 252.925 166.106 248.948C164.233 243.926 162.005 239.089 159.445 234.483C159.126 233.955 157.922 231.273 157.248 231.151L183.008 234.402C185.292 234.287 187.526 235.19 189.244 236.921C192.051 240.679 194.609 244.672 196.897 248.867C202.247 256.993 207.527 265.404 212.983 273.652C215.222 276.411 216.648 279.908 217.058 283.647C216.754 288.145 216.054 292.597 214.967 296.934Z" fill="#473F47"/>
<path d="M185.7 357.921C185.352 358.476 184.935 358.969 184.46 359.384C183.731 360.113 182.921 360.728 182.051 361.212H181.803C180.816 361.68 179.707 361.68 178.72 361.212C176.134 359.953 176.913 352.68 176.771 349.835C176.523 345.366 176.311 340.937 176.063 336.468C175.638 327.773 175.177 319.078 174.752 310.342C174.539 306.279 174.291 302.216 174.114 298.152L172.803 295.511L172.201 294.333L171.492 292.911L170.748 291.326C170.323 290.514 169.898 289.62 169.437 288.685C168.693 287.101 167.984 285.435 167.24 283.81C166.776 282.718 166.256 281.66 165.681 280.64C165.492 280.296 165.278 279.97 165.043 279.665C163.625 277.903 162.097 276.26 160.473 274.749C155.572 269.514 152.31 262.574 151.189 255.002C150.896 252.934 150.777 250.839 150.835 248.745C150.873 245.49 151.327 242.26 152.182 239.156C152.852 236.941 153.706 234.804 154.733 232.777C155.539 230.974 156.619 229.351 157.922 227.982C158.531 227.336 159.224 226.801 159.977 226.398C164.866 223.838 169.827 230.217 173.228 233.589C176.63 236.962 182.511 241.716 184.354 246.795C186.196 251.873 189.669 294.536 189.669 294.536C189.669 305.019 189.669 315.502 189.137 325.944C188.925 332.161 188.677 338.377 188.145 344.553C188.121 349.152 187.29 353.699 185.7 357.921Z" fill="#473F47"/>
<path d="M182.051 361.212H181.803C180.816 361.68 179.707 361.68 178.72 361.212C176.134 359.953 176.913 352.68 176.771 349.835C176.523 345.366 176.311 340.937 176.063 336.468C175.638 327.773 175.177 319.078 174.752 310.342C174.539 306.279 174.291 302.216 174.114 298.152L172.803 295.511L172.201 294.333L171.492 292.911L170.748 291.326C170.323 290.514 169.898 289.62 169.437 288.685L166.921 283.525L165.043 279.462C163.625 277.7 162.097 276.057 160.473 274.546C155.606 269.364 152.346 262.502 151.189 255.002C150.896 252.934 150.777 250.839 150.835 248.745C150.873 245.49 151.327 242.26 152.182 239.156C152.852 236.941 153.706 234.804 154.733 232.777C155.539 230.974 156.619 229.351 157.922 227.982C158.207 228.283 158.457 228.624 158.666 228.998C161.358 233.427 161.217 239.237 161.5 244.641C161.678 251.382 162.877 258.036 165.043 264.307L166 266.541C166.128 266.861 166.27 267.173 166.425 267.476C170.119 274.194 173.398 281.199 176.24 288.442C181.803 304.694 179.783 322.491 180.492 339.718C180.711 344.484 181.16 349.231 181.838 353.939C182.256 356.334 182.328 358.791 182.051 361.212Z" fill="url(#paint2_linear)"/>
<path d="M261.419 228.104C259.966 228.104 258.514 228.104 257.096 228.104C255.608 227.968 254.148 227.557 252.774 226.885C251.463 226.194 250.364 225.138 249.018 224.488C246.254 223.106 243.242 222.456 240.55 220.872C236.475 218.515 232.542 215.833 228.644 213.192L219.219 206.773C216.035 204.684 212.948 202.405 209.972 199.947L208.235 198.403C207.385 197.59 206.322 196.696 205.259 197.062C204.828 197.296 204.442 197.628 204.125 198.037C202.892 199.973 202.112 202.239 201.858 204.619C201.391 206.693 200.688 208.688 199.767 210.551C198.031 214.208 196.401 217.946 194.523 221.481C193.159 224.939 191.235 228.069 188.854 230.705C187.29 231.654 185.503 232.009 183.752 231.72C180.006 231.145 176.221 230.981 172.449 231.233C170.723 231.699 168.971 232.025 167.205 232.208C164.476 232.141 161.835 231.089 159.658 229.201C157.744 227.495 158.595 225.138 159.374 222.903C162.351 214.005 165.291 208.804 161.819 199.662C162.492 201.45 148.071 207.788 146.264 207.788C138.717 207.788 134.217 201.45 128.548 196.534C125.177 193.697 121.624 191.157 117.919 188.936C116.792 188.184 115.606 187.558 114.375 187.067C113.206 186.62 111.683 186.66 110.832 185.726C110.478 185.354 110.168 184.931 109.911 184.466C109.441 183.627 109.061 182.727 108.777 181.784C108.539 180.662 108.037 179.636 107.324 178.818C106.255 178.101 104.987 177.882 103.781 178.209C103.133 178.29 102.48 178.29 101.832 178.209C101.709 178.205 101.589 178.17 101.478 178.106C101.368 178.043 101.271 177.953 101.195 177.843C101.105 177.709 101.057 177.545 101.057 177.376C101.057 177.207 101.105 177.043 101.195 176.909C101.441 176.716 101.718 176.578 102.01 176.502L106.864 175.324C105.482 173.943 103.321 174.308 101.62 173.658C101.391 173.588 101.182 173.447 101.017 173.252C100.934 173.025 100.932 172.771 101.012 172.542C101.091 172.314 101.246 172.131 101.443 172.033C101.858 171.888 102.302 171.888 102.718 172.033L107.962 172.724C106.403 170.53 103.072 171.18 101.478 169.026C102.098 168.55 102.812 168.26 103.554 168.182C104.297 168.104 105.045 168.241 105.73 168.579C107.771 168.913 109.748 169.641 111.576 170.733C112.687 171.475 113.711 172.376 114.623 173.414C118.126 177.774 121.891 181.847 125.891 185.604C128.687 187.694 131.713 189.348 134.891 190.52C136.272 191.089 137.725 191.455 139.107 191.983C140.489 192.511 142.225 193.486 143.749 194.218C144.316 194.564 144.949 194.745 145.591 194.746C146.106 194.633 146.598 194.412 147.044 194.096C150.243 191.848 153.073 188.974 155.406 185.604C157.922 182.191 160.862 179.184 163.52 175.934C164.55 174.539 165.831 173.416 167.276 172.642C169.969 171.586 172.839 173.13 175.709 173.252C176.905 173.32 178.101 173.098 179.218 172.601C180.335 172.104 181.349 171.343 182.193 170.367C183.858 168.132 183.787 164.801 185.736 162.566C186.83 161.376 188.192 160.56 189.669 160.209C191.289 159.608 192.865 158.861 194.381 157.975C195.586 157.324 197.11 156.715 198.173 157.649C198.338 157.773 198.473 157.941 198.566 158.14C198.658 158.339 198.706 158.562 198.704 158.787C198.697 159.181 198.586 159.564 198.385 159.884C197.632 161.575 196.958 163.311 196.366 165.085C195.603 166.874 195.307 168.878 195.515 170.855C196.011 173.658 199.058 175.243 201.113 176.259C204.09 177.721 207.385 177.965 210.361 179.347C213.329 180.918 215.992 183.156 218.192 185.929C221.735 189.992 224.676 194.055 227.9 198.118C229.53 200.15 231.195 202.181 233.003 204.091C235.403 206.034 237.939 207.746 240.585 209.211C243.51 211.414 246.578 213.356 249.762 215.021C252.035 216.188 254.411 217.074 256.848 217.662C257.84 217.99 258.845 218.262 259.86 218.475C260.923 218.475 261.49 218.068 262.376 217.459C263.727 216.65 265.289 216.433 266.769 216.849C269.967 217.664 272.96 219.303 275.521 221.644C276.265 222.213 277.08 223.066 276.939 224.082C276.976 224.214 276.976 224.356 276.939 224.488C276.655 224.772 276.23 224.488 275.911 224.204C274.814 223.295 273.466 222.876 272.12 223.025C273.112 223.919 274.175 225.016 274.068 226.438C274.104 226.543 274.104 226.659 274.068 226.763C274.019 226.792 273.964 226.807 273.909 226.807C273.854 226.807 273.799 226.792 273.75 226.763C272.651 226.763 271.836 225.585 270.809 225.016C269.811 224.494 268.714 224.27 267.62 224.366C267.124 224.366 265.529 224.366 265.529 225.097C265.499 225.217 265.499 225.344 265.529 225.463C265.826 225.905 266.171 226.301 266.557 226.641C266.749 226.808 266.895 227.034 266.977 227.294C267.059 227.554 267.073 227.835 267.017 228.104C266.769 228.673 266.096 228.754 265.529 228.714C264.041 228.632 262.766 228.267 261.419 228.104Z" fill="#F89659"/>
<path d="M256.955 227.535C256.566 227.812 256.132 227.992 255.679 228.064C254.213 227.946 252.825 227.258 251.746 226.113C248.101 224.035 244.336 222.243 240.479 220.75C236.404 218.393 232.471 215.712 228.573 213.071L219.219 206.773C216.035 204.684 212.948 202.405 209.971 199.947C210.786 200.637 214.152 194.786 214.719 194.258C218.015 191.17 216.845 197.793 216.774 200.028C216.703 200.471 216.703 200.926 216.774 201.369C217.03 201.947 217.44 202.417 217.944 202.71C223.896 207.179 230.026 211.323 236.333 215.143C239.522 217.052 242.817 218.8 246.041 220.669C248.699 222.213 251.569 223.107 254.333 224.366C255.502 224.894 256.813 225.707 256.848 227.129C256.902 227.257 256.938 227.394 256.955 227.535Z" fill="#D57439"/>
<path d="M183.964 164.882C184.049 166.304 183.752 167.722 183.114 168.945C182.193 170.367 188.358 172.236 190.2 170.205C192.122 167.729 193.898 165.11 195.515 162.363L183.964 164.882Z" fill="#D57439"/>
<path d="M191.263 165.369C189.288 166.25 187.129 166.434 185.063 165.898C184.039 165.608 183.085 165.06 182.27 164.294C181.455 163.527 180.799 162.562 180.35 161.469C179.904 159.981 179.723 158.406 179.819 156.837C180.044 149.23 182.321 141.89 186.338 135.83C186.93 134.827 187.703 133.981 188.606 133.352C189.83 132.673 191.228 132.529 192.539 132.946C195.061 133.71 197.3 135.392 198.917 137.74C200.517 140.054 201.873 142.577 202.956 145.257C203.735 146.923 205.188 149.564 204.515 151.514C203.533 153.317 202.341 154.957 200.972 156.39C198.513 160.346 195.155 163.452 191.263 165.369Z" fill="#F89659"/>
<path d="M193.212 231.314C192.383 232.827 191.208 234.051 189.815 234.853C188.422 235.656 186.864 236.005 185.311 235.865C179.181 236.434 173.016 234.605 166.921 235.865C165.043 236.23 163.378 236.88 161.323 237.043H160.792C159.76 237.154 158.72 236.988 157.755 236.558C156.789 236.128 155.924 235.445 155.229 234.564C153.315 231.68 154.52 227.535 155.76 224.163C158.063 218.109 162.386 211.161 159.906 204.416C159.587 203.685 159.162 203.035 158.878 202.303C158.587 201.51 158.385 200.677 158.276 199.825L157.355 194.624C156.717 191.17 156.114 187.717 155.477 184.222C155.335 183.527 155.335 182.804 155.477 182.11C155.789 181.201 156.348 180.432 157.071 179.915L163.484 174.064C164.732 172.722 166.237 171.734 167.878 171.18C169.619 171.005 171.373 171.114 173.087 171.505C175.368 171.409 177.629 170.986 179.819 170.245C180.102 170.245 180.421 170.245 180.634 170.245C180.854 170.491 180.982 170.827 180.988 171.18C181.234 172.322 181.693 173.39 182.334 174.308C182.793 174.956 183.29 175.567 183.822 176.137L184.496 176.868L188.358 180.931C189.169 181.913 190.115 182.736 191.157 183.369C194.7 185.197 197.216 180.322 197.039 176.706C196.835 174.675 196.307 172.706 195.48 170.895C197.11 171.627 198.739 172.439 200.369 173.293C201.846 174.302 203.386 175.184 204.976 175.934C207.456 176.706 209.83 175.934 212.062 177.721C215.011 179.92 217.723 182.511 220.141 185.441L218.511 189.748C216.349 194.949 213.834 200.556 209.227 202.831C208.023 203.4 206.783 203.766 205.684 204.416C203.7 205.554 203.487 207.342 202.602 209.373C201.078 212.908 199.554 216.443 198.173 220.019C196.788 223.931 195.129 227.709 193.212 231.314Z" fill="white"/>
<path d="M199.625 180.484C199.912 180.083 200.276 179.763 200.688 179.55C201.025 179.448 201.379 179.448 201.716 179.55C206.18 179.956 210.645 180.525 215.074 181.216C209.582 175.608 200.901 175.852 195.019 171.098C194.204 172.846 195.019 174.877 195.444 176.787C195.693 178.509 195.693 180.266 195.444 181.988C196.195 182.187 196.978 182.153 197.713 181.888C198.448 181.624 199.108 181.139 199.625 180.484Z" fill="url(#paint3_linear)"/>
<path d="M112.993 184.832C112.014 185.125 110.976 185.025 110.053 184.547C109.576 183.713 109.195 182.812 108.919 181.866C108.681 180.743 108.178 179.717 107.466 178.9C106.396 178.186 105.128 177.968 103.923 178.29C104.592 177.805 105.364 177.538 106.155 177.518C106.581 177.503 106.997 177.369 107.367 177.129C107.737 176.888 108.051 176.548 108.281 176.137C108.281 175.812 108.281 175.405 108.635 175.121C108.99 174.837 109.557 174.755 110.053 174.837C111.054 175.113 112.028 175.508 112.958 176.015C113.626 176.296 114.24 176.724 114.765 177.274C115.019 177.492 115.231 177.766 115.389 178.08C115.548 178.395 115.649 178.742 115.686 179.103C115.367 179.103 114.907 178.696 114.588 178.493C114.182 178.251 113.754 178.06 113.312 177.924C112.412 177.649 111.477 177.553 110.549 177.64C110.549 177.64 110.265 177.64 110.23 177.64C110.194 177.64 110.23 178.006 110.442 178.128C111.753 179.306 113.419 179.875 114.694 181.134C114.902 181.274 115.064 181.488 115.155 181.744C115.277 182.082 115.277 182.462 115.155 182.8C114.981 183.326 114.69 183.791 114.311 184.147C113.932 184.504 113.477 184.74 112.993 184.832Z" fill="#D57439"/>
<path d="M203.983 338.906H203.665C202.176 338.337 201.326 335.94 201.326 333.542L201.964 290.473C202.086 289.968 202.086 289.434 201.964 288.929C201.67 288.472 201.28 288.108 200.83 287.873C199.767 287.223 198.739 286.532 197.712 285.841C194.558 283.769 191.476 281.534 188.464 279.218L186.622 262.031C186.622 262.031 205.294 276.212 207.243 282.875C209.192 289.539 203.983 338.906 203.983 338.906Z" fill="url(#paint4_linear)"/>
<path d="M195.09 147.045C196.498 147.641 197.943 148.117 199.413 148.467C200.865 149.036 202.318 150.295 202.353 152.002C203.594 152.002 204.267 150.376 204.621 149.036C205.339 146.795 205.815 144.461 206.038 142.088C206.239 139.708 205.74 137.32 204.621 135.302C202.601 132.011 195.125 125.835 192.751 131.605C190.944 136.074 190.732 144.444 195.09 147.045Z" fill="#473F47"/>
<path d="M232.684 323.791C230.062 323.303 227.44 322.816 224.818 322.247L225.668 316.924C228.255 317.452 230.841 317.981 233.428 318.427L232.684 323.791Z" fill="#68E1FD"/>
<path d="M209.121 318.671C206.535 318.021 203.984 317.33 201.397 316.599L202.495 311.358L210.149 313.389L209.121 318.671Z" fill="#68E1FD"/>
<path d="M185.984 312.008L178.331 309.448L179.712 304.247C182.228 305.141 184.744 305.954 187.259 306.766L185.984 312.008Z" fill="#68E1FD"/>
<path d="M163.201 303.841C160.721 302.866 158.205 301.85 155.725 300.793L157.355 295.715L164.76 298.721L163.201 303.841Z" fill="#68E1FD"/>
<path d="M279.277 231.395L315.737 142.9L380.861 160.697L343.764 250.167L279.277 231.395Z" fill="#68E1FD"/>
<path d="M6.48389 40.997L118.45 0L146.441 132.702L52.723 187.717L6.48389 40.997Z" fill="white"/>
<path d="M0 303.841L53.2547 342.075L71.148 274.017L12.4013 228.063L0 303.841Z" fill="#68E1FD"/>
<path d="M280.163 376.612L290.296 300.509L367.326 294.699L350.779 368.323L280.163 376.612Z" fill="white"/>
<path d="M305.391 218.718L298.658 216.971L303.938 204.985L310.705 206.732L305.391 218.718Z" fill="white"/>
<path d="M313.717 220.831L306.949 219.125L317.756 194.705L324.524 196.412L313.717 220.831Z" fill="#68E1FD"/>
<path d="M322.044 222.985L315.276 221.237L321.867 206.366L328.599 208.114L322.044 222.985Z" fill="white"/>
<path d="M330.335 225.138L323.603 223.391L337.847 191.252L344.579 192.999L330.335 225.138Z" fill="#68E1FD"/>
<path d="M313.717 220.831L306.949 219.125L317.756 194.705L324.524 196.412L313.717 220.831Z" fill="url(#paint5_linear)"/>
<path d="M330.335 225.138L323.603 223.391L337.847 191.252L344.579 192.999L330.335 225.138Z" fill="url(#paint6_linear)"/>
<path d="M338.661 227.291L331.929 225.544L350.141 184.425L356.874 186.173L338.661 227.291Z" fill="white"/>
<path d="M63.2111 84.3506C63.1954 80.8147 63.8609 77.3184 65.1599 74.1115L51.9791 65.7821C49.4713 71.5485 48.1731 77.907 48.1879 84.3506C48.2142 93.6845 50.9477 102.743 55.9578 110.099C60.9679 117.455 67.9698 122.691 75.8605 124.982L78.5533 107.795C74.1457 106.283 70.277 103.19 67.5156 98.9699C64.7542 94.7501 63.2455 89.6262 63.2111 84.3506Z" fill="#473F47"/>
<path opacity="0.18" d="M116.182 105.966C112.906 112.181 108.283 117.318 102.764 120.877C97.2442 124.437 91.0155 126.299 84.6829 126.282C81.6473 126.283 78.6237 125.846 75.6831 124.982L78.376 107.795C80.4221 108.498 82.5469 108.854 84.6829 108.851C88.2974 108.859 91.8551 107.821 95.0264 105.832C98.1977 103.843 100.88 100.969 102.824 97.4745L116.182 105.966Z" fill="#68E1FD"/>
<path d="M121.391 84.3506C121.4 91.9648 119.599 99.4379 116.182 105.966L102.824 97.637C104.436 94.7862 105.516 91.5843 105.998 88.2321C106.48 84.8799 106.353 81.4497 105.624 78.1565C104.896 74.8634 103.582 71.7784 101.765 69.095C99.9476 66.4115 97.6667 64.1875 95.0649 62.5624C92.4631 60.9373 89.5966 59.9462 86.6451 59.6511C83.6935 59.3561 80.7207 59.7635 77.9129 60.8478C75.1051 61.9321 72.523 63.67 70.3285 65.9524C68.1339 68.2349 66.3742 71.0126 65.1598 74.1115L51.979 65.7821C55.6317 57.2537 61.6953 50.3951 69.1819 46.3238C76.6684 42.2525 85.1366 41.2084 93.2068 43.3618C101.277 45.5152 108.473 50.739 113.623 58.1822C118.773 65.6253 121.574 74.8491 121.568 84.3506H121.391Z" fill="#68E1FD"/>
<path d="M303.548 353.127C303.538 352.894 303.571 352.662 303.644 352.445C303.718 352.228 303.83 352.031 303.973 351.867C304.633 351.097 305.108 350.146 305.355 349.104C305.506 348.449 305.474 347.755 305.265 347.122C305.055 346.488 304.678 345.945 304.186 345.569C303.581 345.047 302.896 344.661 302.166 344.431C301.804 344.318 301.49 344.057 301.282 343.699C301.073 343.341 300.985 342.908 301.032 342.481C301.032 341.953 301.032 341.384 301.032 340.856C301.046 340.61 301.102 340.37 301.196 340.149C301.291 339.928 301.423 339.731 301.584 339.569C301.745 339.406 301.933 339.282 302.136 339.203C302.339 339.124 302.554 339.092 302.768 339.109C303.467 339.098 304.155 338.918 304.788 338.581C305.47 338.278 306.028 337.692 306.35 336.939C306.672 336.186 306.734 335.321 306.524 334.517C306.353 333.806 306.128 333.112 305.851 332.445C305.688 332.059 305.648 331.62 305.739 331.204C305.83 330.788 306.045 330.422 306.347 330.17C306.717 329.867 307.072 329.542 307.41 329.195C307.725 328.918 308.111 328.768 308.509 328.768C308.906 328.768 309.292 328.918 309.607 329.195C310.126 329.795 310.739 330.278 311.414 330.617C312.029 330.918 312.716 330.969 313.36 330.762C314.004 330.555 314.567 330.103 314.957 329.479C315.425 328.744 315.773 327.918 315.985 327.041C316.106 326.633 316.353 326.288 316.678 326.072C317.004 325.855 317.387 325.781 317.756 325.863H319.174C319.553 325.904 319.905 326.105 320.16 326.429C320.416 326.752 320.557 327.174 320.555 327.61C320.594 328.66 320.836 329.687 321.264 330.617C321.578 331.219 322.045 331.697 322.602 331.987C323.159 332.278 323.78 332.366 324.382 332.242C325.073 332.075 325.74 331.802 326.366 331.429C326.73 331.186 327.162 331.113 327.572 331.227C327.981 331.34 328.337 331.631 328.563 332.039C328.811 332.527 329.201 332.933 329.484 333.42C329.676 333.763 329.762 334.168 329.73 334.573C329.698 334.977 329.549 335.358 329.307 335.655C328.77 336.284 328.348 337.03 328.067 337.849C327.753 338.647 327.726 339.555 327.991 340.377C328.256 341.198 328.793 341.866 329.484 342.237C330 342.587 330.546 342.873 331.114 343.091C331.451 343.2 331.745 343.435 331.951 343.76C332.157 344.084 332.261 344.478 332.248 344.878C332.248 345.529 332.248 346.179 332.035 346.869C331.983 347.296 331.795 347.686 331.507 347.964C331.219 348.241 330.852 348.387 330.477 348.373C329.641 348.414 328.821 348.649 328.067 349.063C327.494 349.374 327.028 349.893 326.739 350.54C326.451 351.187 326.357 351.925 326.473 352.639C326.587 353.473 326.814 354.282 327.146 355.036C327.262 355.237 327.342 355.464 327.38 355.701C327.418 355.938 327.413 356.182 327.367 356.417C327.32 356.653 327.233 356.875 327.11 357.07C326.987 357.266 326.83 357.431 326.65 357.555L325.658 358.409C325.366 358.741 324.971 358.928 324.559 358.928C324.148 358.928 323.753 358.741 323.461 358.409C322.883 357.777 322.194 357.292 321.441 356.987C320.81 356.702 320.113 356.676 319.468 356.913C318.822 357.149 318.267 357.635 317.898 358.287C317.46 358.986 317.136 359.771 316.941 360.603C316.835 361 316.61 361.34 316.304 361.564C315.999 361.787 315.635 361.879 315.276 361.822L313.611 361.578C313.271 361.507 312.962 361.309 312.731 361.015C312.5 360.721 312.361 360.347 312.335 359.953C312.324 358.969 312.131 358 311.768 357.108C311.479 356.356 310.957 355.753 310.302 355.415C309.648 355.078 308.908 355.029 308.225 355.28C307.557 355.49 306.906 355.762 306.276 356.093C305.958 356.28 305.594 356.341 305.242 356.268C304.89 356.194 304.568 355.99 304.328 355.686C303.973 355.158 303.619 354.671 303.3 354.102C303.14 353.785 303.02 353.442 302.946 353.086L303.548 353.127ZM316.8 337.89C315.775 337.882 314.771 338.223 313.916 338.87C313.061 339.517 312.392 340.44 311.995 341.524C311.598 342.607 311.491 343.801 311.686 344.954C311.882 346.108 312.372 347.168 313.094 348.002C313.816 348.836 314.737 349.405 315.742 349.637C316.746 349.869 317.788 349.754 318.736 349.306C319.683 348.859 320.493 348.098 321.063 347.122C321.633 346.146 321.937 344.997 321.937 343.822C321.937 343.036 321.801 342.258 321.537 341.533C321.272 340.808 320.885 340.15 320.397 339.598C319.909 339.046 319.331 338.611 318.695 338.318C318.059 338.025 317.379 337.879 316.693 337.89H316.8Z" fill="#68E1FD"/>
<path d="M342.736 335.899C342.753 336.129 342.753 336.36 342.736 336.59C342.725 336.871 342.631 337.141 342.471 337.354C342.31 337.568 342.092 337.714 341.85 337.768L340.787 338.093C340.51 338.18 340.214 338.149 339.954 338.008C339.694 337.866 339.487 337.623 339.37 337.321C339.122 336.833 338.874 336.346 338.591 335.899C338.404 335.614 338.168 335.376 337.898 335.2C337.628 335.024 337.329 334.913 337.02 334.875C336.711 334.837 336.398 334.872 336.102 334.978C335.805 335.085 335.531 335.26 335.295 335.493C334.94 335.798 334.608 336.138 334.303 336.508C334.118 336.753 333.865 336.915 333.586 336.967C333.308 337.019 333.022 336.957 332.78 336.793L331.929 336.224C331.633 336.057 331.404 335.765 331.292 335.409C331.18 335.052 331.192 334.66 331.327 334.314C331.501 333.751 331.608 333.163 331.646 332.567C331.686 331.918 331.505 331.276 331.142 330.777C330.779 330.277 330.261 329.957 329.697 329.885C329.143 329.845 328.586 329.845 328.032 329.885C327.755 329.877 327.49 329.752 327.288 329.535C327.085 329.318 326.959 329.024 326.933 328.707C326.883 328.363 326.812 328.024 326.721 327.691C326.634 327.362 326.654 327.007 326.778 326.693C326.902 326.379 327.12 326.128 327.394 325.985C327.925 325.692 328.415 325.308 328.847 324.847C329.232 324.449 329.478 323.903 329.536 323.312C329.595 322.72 329.463 322.125 329.166 321.637C328.878 321.199 328.57 320.779 328.244 320.378C328.096 320.269 327.969 320.125 327.872 319.956C327.776 319.786 327.712 319.595 327.685 319.395C327.659 319.195 327.669 318.991 327.717 318.796C327.764 318.601 327.847 318.42 327.961 318.265L328.386 317.371C328.541 317.075 328.785 316.855 329.072 316.75C329.359 316.645 329.669 316.664 329.945 316.802C330.549 317.093 331.207 317.205 331.858 317.127C332.305 317.114 332.735 316.931 333.081 316.608C333.427 316.284 333.67 315.838 333.772 315.339C333.903 314.673 333.962 313.991 333.949 313.308C333.925 312.995 333.992 312.682 334.139 312.417C334.287 312.153 334.506 311.952 334.764 311.845L336.004 311.52C336.286 311.431 336.587 311.469 336.844 311.628C337.102 311.787 337.296 312.054 337.386 312.373C337.66 313.103 338.086 313.745 338.626 314.242C339.022 314.626 339.524 314.837 340.043 314.837C340.562 314.837 341.064 314.626 341.461 314.242C341.78 313.963 342.077 313.65 342.346 313.308C342.532 313.053 342.787 312.879 343.07 312.812C343.353 312.746 343.648 312.792 343.905 312.942L344.933 313.633C345.171 313.802 345.348 314.062 345.432 314.368C345.517 314.674 345.503 315.004 345.394 315.299C345.168 315.958 345.06 316.663 345.075 317.371C345.078 317.984 345.272 318.576 345.624 319.038C345.975 319.5 346.459 319.803 346.988 319.89H348.476C348.776 319.855 349.075 319.954 349.313 320.166C349.55 320.378 349.708 320.686 349.752 321.028C349.752 321.434 349.929 321.84 350 322.247C350.079 322.549 350.053 322.874 349.927 323.154C349.802 323.434 349.586 323.648 349.327 323.75C348.751 324.032 348.232 324.447 347.803 324.969C347.468 325.341 347.25 325.832 347.186 326.362C347.122 326.892 347.214 327.432 347.449 327.895C347.755 328.461 348.125 328.98 348.547 329.439C348.798 329.664 348.967 329.989 349.02 330.35C349.072 330.712 349.005 331.082 348.83 331.389L348.334 332.323C348.267 332.486 348.171 332.63 348.053 332.749C347.936 332.868 347.799 332.959 347.65 333.016C347.501 333.073 347.344 333.094 347.188 333.08C347.031 333.066 346.879 333.016 346.74 332.933C345.98 332.65 345.161 332.65 344.401 332.933C344.016 333.067 343.67 333.319 343.401 333.663C343.133 334.007 342.952 334.429 342.878 334.883C342.841 335.343 342.841 335.805 342.878 336.265L342.736 335.899ZM338.343 320.296C337.832 320.291 337.326 320.402 336.854 320.622C336.381 320.842 335.951 321.167 335.589 321.579C335.226 321.991 334.939 322.481 334.742 323.021C334.546 323.561 334.445 324.14 334.445 324.725C334.438 325.611 334.661 326.479 335.085 327.219C335.508 327.96 336.115 328.539 336.826 328.883C337.538 329.228 338.323 329.322 339.081 329.154C339.839 328.987 340.537 328.564 341.086 327.941C341.634 327.317 342.009 326.521 342.162 325.653C342.316 324.785 342.241 323.884 341.947 323.065C341.653 322.246 341.153 321.546 340.512 321.053C339.87 320.56 339.115 320.297 338.343 320.296Z" fill="#68E1FD"/>
<path d="M111.505 314.527C111.305 315.987 111.427 317.482 111.86 318.874C113.126 325.421 115.381 331.664 118.521 337.321C123.446 345.447 131.135 350.526 138.575 355.443C137.938 354.833 138.044 350.323 137.938 349.307L137.406 343.294C136.953 340.118 135.875 337.103 134.253 334.477C131.007 328.351 126.538 323.199 121.214 319.443C118.196 317.287 114.928 315.631 111.505 314.527Z" fill="#68E1FD"/>
<path d="M111.505 314.527C111.305 315.987 111.427 317.482 111.86 318.874C113.126 325.421 115.381 331.664 118.521 337.321C123.446 345.447 131.135 350.526 138.575 355.443C137.938 354.833 138.044 350.323 137.938 349.307L137.406 343.294C136.953 340.118 135.875 337.103 134.253 334.477C131.007 328.351 126.538 323.199 121.214 319.443C118.196 317.287 114.928 315.631 111.505 314.527Z" fill="url(#paint7_linear)"/>
<path d="M142.119 327.041C142.876 321.667 143.007 316.202 142.509 310.789C141.946 305.28 139.499 300.253 135.706 296.812L130.143 319.24C128.874 323.494 128.193 327.95 128.123 332.445C128.417 336.871 129.514 341.178 131.345 345.09C133.175 349.001 135.699 352.431 138.753 355.158C140.524 351.948 140.135 346.179 140.524 342.4L142.119 327.041Z" fill="#68E1FD"/>
<path d="M142.119 327.041C142.876 321.667 143.007 316.202 142.509 310.789C141.946 305.28 139.499 300.253 135.706 296.812L130.143 319.24C128.874 323.494 128.193 327.95 128.123 332.445C128.417 336.871 129.514 341.178 131.345 345.09C133.175 349.001 135.699 352.431 138.753 355.158C140.524 351.948 140.135 346.179 140.524 342.4L142.119 327.041Z" fill="url(#paint8_linear)"/>
<defs>
<linearGradient id="paint0_linear" x1="11248.7" y1="-34.8197" x2="11580.7" y2="347.089" gradientUnits="userSpaceOnUse">
<stop offset="0.01"/>
<stop offset="0.08" stop-opacity="0.69"/>
<stop offset="0.21" stop-opacity="0.32"/>
<stop offset="1" stop-opacity="0"/>
</linearGradient>
<linearGradient id="paint1_linear" x1="267.797" y1="65.7414" x2="345.854" y2="65.7414" gradientUnits="userSpaceOnUse">
<stop offset="0.01"/>
<stop offset="0.08" stop-opacity="0.69"/>
<stop offset="0.21" stop-opacity="0.32"/>
<stop offset="1" stop-opacity="0"/>
</linearGradient>
<linearGradient id="paint2_linear" x1="-8550.6" y1="11632.9" x2="277.253" y2="14137.1" gradientUnits="userSpaceOnUse">
<stop offset="0.01"/>
<stop offset="0.08" stop-opacity="0.69"/>
<stop offset="0.21" stop-opacity="0.32"/>
<stop offset="1" stop-opacity="0"/>
</linearGradient>
<linearGradient id="paint3_linear" x1="-3738.1" y1="49.7398" x2="-2661.75" y2="2079.71" gradientUnits="userSpaceOnUse">
<stop offset="0.01"/>
<stop offset="0.08" stop-opacity="0.69"/>
<stop offset="0.21" stop-opacity="0.32"/>
<stop offset="1" stop-opacity="0"/>
</linearGradient>
<linearGradient id="paint4_linear" x1="-4428.75" y1="9350.99" x2="-3586.33" y2="9403.56" gradientUnits="userSpaceOnUse">
<stop offset="0.01"/>
<stop offset="0.08" stop-opacity="0.69"/>
<stop offset="0.21" stop-opacity="0.32"/>
<stop offset="1" stop-opacity="0"/>
</linearGradient>
<linearGradient id="paint5_linear" x1="-7924.53" y1="939.004" x2="-7506.2" y2="1893.68" gradientUnits="userSpaceOnUse">
<stop offset="0.01"/>
<stop offset="0.08" stop-opacity="0.69"/>
<stop offset="0.21" stop-opacity="0.32"/>
<stop offset="1" stop-opacity="0"/>
</linearGradient>
<linearGradient id="paint6_linear" x1="-9956.56" y1="1256.7" x2="-9393.88" y2="2427.22" gradientUnits="userSpaceOnUse">
<stop offset="0.01"/>
<stop offset="0.08" stop-opacity="0.69"/>
<stop offset="0.21" stop-opacity="0.32"/>
<stop offset="1" stop-opacity="0"/>
</linearGradient>
<linearGradient id="paint7_linear" x1="145.829" y1="323.24" x2="82.0889" y2="349.938" gradientUnits="userSpaceOnUse">
<stop offset="0.01"/>
<stop offset="0.13" stop-opacity="0.69"/>
<stop offset="0.25" stop-opacity="0.32"/>
<stop offset="1" stop-opacity="0"/>
</linearGradient>
<linearGradient id="paint8_linear" x1="-10974.8" y1="51760.8" x2="-10400.2" y2="51759.4" gradientUnits="userSpaceOnUse">
<stop offset="0.01"/>
<stop offset="0.13" stop-opacity="0.69"/>
<stop offset="0.25" stop-opacity="0.32"/>
<stop offset="1" stop-opacity="0"/>
</linearGradient>
</defs>
</svg>
