<svg width="837" height="874" viewBox="0 0 837 874" fill="none" xmlns="http://www.w3.org/2000/svg">
<path opacity="0.18" d="M398.164 805.115C362.932 808.45 326.766 801.326 293.103 784.422C253.593 764.817 208.411 736.045 195.421 687.738C181.653 636.543 183.562 582.791 187.742 531.801C193.411 462.931 207.406 387.966 178.49 321.572C149.573 255.179 137.216 169.225 151.142 101.757C173.262 -4.55529 252.506 -51.9404 337.642 -79.163C393.911 -97.0904 453.385 -110.192 513.02 -97.9496C575.687 -85.1142 634.948 -44.8029 697.278 -36.3082C738.775 -30.8364 779.906 -39.3546 821.194 -31.6409C873.199 -21.8417 921.457 13.586 959.08 58.3532C996.703 103.12 1024.89 156.797 1050.2 210.849C1092.52 302.377 1093.4 431.874 1067.23 524.571C1049.74 586.226 1012.62 662.579 952.625 666.407C647.357 686.478 732.361 772.771 398.164 805.115Z" fill="#274FC7"/>
</svg>
