<svg width="20" height="22" viewBox="0 0 20 22" fill="none" xmlns="http://www.w3.org/2000/svg">
    <g clip-path="url(#clip0)">
        <path d="M10 13.5282C11.3807 13.5282 12.5 12.3646 12.5 10.9291C12.5 9.49372 11.3807 8.33008 10 8.33008C8.61929 8.33008 7.5 9.49372 7.5 10.9291C7.5 12.3646 8.61929 13.5282 10 13.5282Z" stroke="#808191" stroke-width="2" stroke-linecap="round" stroke-linejoin="round"/>
        <path d="M16.1668 13.5279C16.0559 13.7892 16.0228 14.079 16.0718 14.3601C16.1208 14.6411 16.2497 14.9005 16.4418 15.1046L16.4918 15.1566C16.6468 15.3175 16.7697 15.5086 16.8536 15.719C16.9375 15.9293 16.9806 16.1548 16.9806 16.3825C16.9806 16.6102 16.9375 16.8357 16.8536 17.046C16.7697 17.2564 16.6468 17.4475 16.4918 17.6084C16.337 17.7695 16.1532 17.8973 15.9509 17.9845C15.7486 18.0717 15.5317 18.1166 15.3127 18.1166C15.0936 18.1166 14.8768 18.0717 14.6744 17.9845C14.4721 17.8973 14.2883 17.7695 14.1335 17.6084L14.0835 17.5564C13.8871 17.3567 13.6376 17.2227 13.3673 17.1717C13.097 17.1208 12.8182 17.1552 12.5668 17.2705C12.3204 17.3803 12.1101 17.5627 11.9621 17.7951C11.814 18.0276 11.7346 18.2999 11.7335 18.5787V18.726C11.7335 19.1855 11.5579 19.6263 11.2453 19.9512C10.9328 20.2761 10.5089 20.4587 10.0668 20.4587C9.6248 20.4587 9.20088 20.2761 8.88832 19.9512C8.57576 19.6263 8.40016 19.1855 8.40016 18.726V18.648C8.39371 18.3613 8.30443 18.0832 8.14392 17.8498C7.98341 17.6165 7.75911 17.4388 7.50016 17.3398C7.24882 17.2245 6.97 17.1901 6.69967 17.2411C6.42934 17.292 6.17989 17.426 5.9835 17.6257L5.9335 17.6777C5.77871 17.8388 5.59489 17.9666 5.39256 18.0538C5.19023 18.141 4.97335 18.1859 4.75433 18.1859C4.5353 18.1859 4.31843 18.141 4.1161 18.0538C3.91377 17.9666 3.72995 17.8388 3.57516 17.6777C3.4202 17.5168 3.29727 17.3257 3.2134 17.1153C3.12952 16.905 3.08635 16.6795 3.08635 16.4518C3.08635 16.2241 3.12952 15.9986 3.2134 15.7883C3.29727 15.5779 3.4202 15.3868 3.57516 15.2259L3.62516 15.1739C3.81728 14.9698 3.94615 14.7104 3.99517 14.4294C4.04418 14.1483 4.01109 13.8585 3.90016 13.5972C3.79453 13.3409 3.61913 13.1224 3.39555 12.9685C3.17198 12.8145 2.90998 12.7319 2.64183 12.7308H2.50016C2.05814 12.7308 1.63421 12.5483 1.32165 12.2233C1.00909 11.8984 0.833496 11.4577 0.833496 10.9981C0.833496 10.5386 1.00909 10.0979 1.32165 9.77291C1.63421 9.44797 2.05814 9.26541 2.50016 9.26541H2.57516C2.85099 9.25871 3.1185 9.16589 3.34291 8.99902C3.56732 8.83215 3.73826 8.59896 3.8335 8.32975C3.94443 8.06845 3.97752 7.77858 3.9285 7.49754C3.87948 7.2165 3.75061 6.95717 3.5585 6.75299L3.5085 6.70101C3.35354 6.54009 3.2306 6.34899 3.14673 6.13864C3.06286 5.92829 3.01968 5.70282 3.01968 5.47512C3.01968 5.24741 3.06286 5.02194 3.14673 4.81159C3.2306 4.60125 3.35354 4.41015 3.5085 4.24923C3.66328 4.08813 3.8471 3.96032 4.04943 3.87313C4.25176 3.78593 4.46864 3.74105 4.68766 3.74105C4.90669 3.74105 5.12357 3.78593 5.3259 3.87313C5.52823 3.96032 5.71204 4.08813 5.86683 4.24923L5.91683 4.30121C6.11323 4.50094 6.36268 4.63492 6.633 4.68587C6.90333 4.73683 7.18215 4.70243 7.4335 4.58711H7.50016C7.74664 4.47728 7.95684 4.29493 8.10491 4.0625C8.25297 3.83006 8.33243 3.55769 8.3335 3.27891V3.13163C8.3335 2.67209 8.50909 2.23137 8.82165 1.90642C9.13421 1.58148 9.55813 1.39893 10.0002 1.39893C10.4422 1.39893 10.8661 1.58148 11.1787 1.90642C11.4912 2.23137 11.6668 2.67209 11.6668 3.13163V3.2096C11.6679 3.48838 11.7474 3.76076 11.8954 3.99319C12.0435 4.22562 12.2537 4.40798 12.5002 4.5178C12.7515 4.63312 13.0303 4.66752 13.3007 4.61657C13.571 4.56561 13.8204 4.43163 14.0168 4.2319L14.0668 4.17992C14.2216 4.01882 14.4054 3.89102 14.6078 3.80382C14.8101 3.71662 15.027 3.67174 15.246 3.67174C15.465 3.67174 15.6819 3.71662 15.8842 3.80382C16.0866 3.89102 16.2704 4.01882 16.4252 4.17992C16.5801 4.34084 16.7031 4.53194 16.7869 4.74229C16.8708 4.95263 16.914 5.17811 16.914 5.40581C16.914 5.63351 16.8708 5.85899 16.7869 6.06933C16.7031 6.27968 16.5801 6.47078 16.4252 6.6317L16.3752 6.68368C16.183 6.88786 16.0542 7.14719 16.0052 7.42823C15.9561 7.70928 15.9892 7.99914 16.1002 8.26044V8.32975C16.2058 8.58599 16.3812 8.80453 16.6048 8.95846C16.8283 9.11239 17.0903 9.19499 17.3585 9.19611H17.5002C17.9422 9.19611 18.3661 9.37866 18.6787 9.7036C18.9912 10.0285 19.1668 10.4693 19.1668 10.9288C19.1668 11.3884 18.9912 11.8291 18.6787 12.154C18.3661 12.479 17.9422 12.6615 17.5002 12.6615H17.4252C17.157 12.6626 16.895 12.7452 16.6714 12.8992C16.4479 13.0531 16.2725 13.2716 16.1668 13.5279V13.5279Z" stroke="#808191" stroke-width="2" stroke-linecap="round" stroke-linejoin="round"/>
    </g>
    <defs>
        <clipPath id="clip0">
            <rect width="20" height="20.7925" fill="white" transform="translate(0 0.532715)"/>
        </clipPath>
    </defs>
</svg>
